<?xml version="1.0" encoding="utf-8"?>
<!-- Generator: Adobe Illustrator 16.0.0, SVG Export Plug-In . SVG Version: 6.00 Build 0)  -->
<svg version="1.2" baseProfile="tiny" id="Calque_1"
	 xmlns="http://www.w3.org/2000/svg" xmlns:xlink="http://www.w3.org/1999/xlink" x="0px" y="0px" width="250px" height="250px"
	 viewBox="0 0 250 250" xml:space="preserve">
<g>
	<path fill="#878787" d="M50.586,95.197l0.527,2.314h0.176l0.498-2.256l9.287-31.377h9.023l-14.502,42.656h-8.789L32.334,63.878
		h9.023L50.586,95.197z"/>
	<path fill="#878787" d="M107.715,89.044c0,5.234-1.655,9.561-4.966,12.979c-3.311,3.418-7.613,5.127-12.905,5.127
		c-5.254,0-9.521-1.709-12.803-5.127c-3.281-3.417-4.922-7.744-4.922-12.979v-7.676c0-5.215,1.636-9.536,4.907-12.964
		c3.271-3.428,7.534-5.142,12.788-5.142c5.292,0,9.599,1.714,12.92,5.142c3.32,3.428,4.98,7.749,4.98,12.964V89.044z M99.16,81.332
		c0-3.327-0.831-6.056-2.49-8.189c-1.66-2.133-3.945-3.2-6.855-3.2c-2.911,0-5.167,1.062-6.768,3.185
		c-1.602,2.123-2.402,4.858-2.402,8.204v7.749c0,3.386,0.81,6.145,2.432,8.278c1.621,2.133,3.877,3.199,6.768,3.199
		c2.93,0,5.215-1.066,6.855-3.199s2.461-4.892,2.461-8.278V81.332z"/>
	<path fill="#878787" d="M142.959,70.47h-12.07v36.064h-8.555V70.47h-12.012v-6.592h32.637V70.47z"/>
	<path fill="#878787" d="M156.289,89.484v17.051h-8.555V63.878h16.084c4.863,0,8.667,1.109,11.411,3.325
		c2.744,2.217,4.116,5.308,4.116,9.272c0,2.208-0.576,4.102-1.729,5.684s-2.842,2.861-5.068,3.838
		c2.52,0.743,4.331,1.982,5.435,3.721c1.104,1.739,1.655,3.887,1.655,6.445v3.135c0,1.191,0.161,2.437,0.483,3.735
		s0.874,2.261,1.655,2.886v0.615h-8.818c-0.781-0.625-1.289-1.67-1.523-3.135s-0.352-2.852-0.352-4.16v-3.018
		c0-2.128-0.581-3.784-1.743-4.966c-1.162-1.182-2.798-1.772-4.907-1.772H156.289z M156.289,82.892h7.383
		c2.402,0,4.194-0.508,5.376-1.523c1.182-1.015,1.772-2.52,1.772-4.512c0-1.953-0.591-3.505-1.772-4.658
		c-1.182-1.152-2.925-1.729-5.229-1.729h-7.529V82.892z"/>
	<path fill="#878787" d="M213.623,87.785h-17.666v12.158h20.654v6.592h-29.209V63.878h29.15v6.592h-20.596v10.723h17.666V87.785z"/>
	<path fill="#878787" d="M61.133,171.943h18.984v6.592H52.578v-42.656h8.555V171.943z"/>
	<path fill="#878787" d="M117.617,161.045c0,5.234-1.655,9.561-4.966,12.979s-7.613,5.127-12.905,5.127
		c-5.254,0-9.521-1.709-12.803-5.127s-4.922-7.744-4.922-12.979v-7.676c0-5.215,1.636-9.537,4.907-12.965
		c3.271-3.428,7.534-5.141,12.788-5.141c5.292,0,9.599,1.713,12.92,5.141c3.32,3.428,4.98,7.75,4.98,12.965V161.045z
		 M109.063,153.332c0-3.326-0.831-6.057-2.49-8.189c-1.66-2.133-3.945-3.199-6.855-3.199c-2.911,0-5.167,1.063-6.768,3.186
		c-1.602,2.123-2.402,4.857-2.402,8.203v7.75c0,3.385,0.81,6.145,2.432,8.277c1.621,2.133,3.877,3.199,6.768,3.199
		c2.93,0,5.215-1.066,6.855-3.199s2.461-4.893,2.461-8.277V153.332z"/>
	<path fill="#878787" d="M157.051,172.705c-1.27,1.68-3.248,3.174-5.933,4.482c-2.686,1.309-6.079,1.963-10.181,1.963
		c-5.215,0-9.473-1.621-12.773-4.863s-4.951-7.451-4.951-12.627v-8.906c0-5.156,1.586-9.361,4.761-12.613
		c3.174-3.252,7.261-4.877,12.261-4.877c5.195,0,9.174,1.264,11.938,3.793c2.764,2.529,4.175,5.855,4.233,9.977l-0.059,0.176h-8.057
		c-0.156-2.266-0.879-4.059-2.168-5.377s-3.174-1.977-5.654-1.977c-2.617,0-4.727,1.01-6.328,3.029s-2.402,4.619-2.402,7.799v8.957
		c0,3.24,0.83,5.869,2.49,7.889s3.896,3.029,6.709,3.029c1.992,0,3.594-0.205,4.805-0.613c1.211-0.41,2.129-0.916,2.754-1.52v-7.887
		h-7.559v-5.918h16.113V172.705z"/>
	<path fill="#878787" d="M198.711,161.045c0,5.234-1.655,9.561-4.966,12.979s-7.612,5.127-12.905,5.127
		c-5.254,0-9.521-1.709-12.803-5.127s-4.922-7.744-4.922-12.979v-7.676c0-5.215,1.636-9.537,4.907-12.965s7.534-5.141,12.788-5.141
		c5.293,0,9.6,1.713,12.92,5.141s4.98,7.75,4.98,12.965V161.045z M190.156,153.332c0-3.326-0.83-6.057-2.49-8.189
		s-3.945-3.199-6.855-3.199s-5.166,1.063-6.768,3.186s-2.402,4.857-2.402,8.203v7.75c0,3.385,0.811,6.145,2.432,8.277
		s3.877,3.199,6.768,3.199c2.93,0,5.215-1.066,6.855-3.199s2.461-4.893,2.461-8.277V153.332z"/>
</g>
<path fill="#878787" d="M242,8v234H8V8H242 M250,0H0v250h250V0L250,0z"/>
</svg>
